<svg width="1364" height="616" xmlns="http://www.w3.org/2000/svg"><g fill="#F1F1F5" fill-rule="evenodd"><g><rect width="4" height="4" rx="2"/><rect x="34" width="4" height="4" rx="2"/><rect x="68" width="4" height="4" rx="2"/><rect x="102" width="4" height="4" rx="2"/><rect x="136" width="4" height="4" rx="2"/><rect x="170" width="4" height="4" rx="2"/><rect x="204" width="4" height="4" rx="2"/><rect x="238" width="4" height="4" rx="2"/><rect x="272" width="4" height="4" rx="2"/><rect x="306" width="4" height="4" rx="2"/><rect x="340" width="4" height="4" rx="2"/><rect x="374" width="4" height="4" rx="2"/><rect x="408" width="4" height="4" rx="2"/><rect x="442" width="4" height="4" rx="2"/><rect x="476" width="4" height="4" rx="2"/><rect x="510" width="4" height="4" rx="2"/><rect x="544" width="4" height="4" rx="2"/><rect x="578" width="4" height="4" rx="2"/><rect x="612" width="4" height="4" rx="2"/><rect x="646" width="4" height="4" rx="2"/><rect x="680" width="4" height="4" rx="2"/><rect x="714" width="4" height="4" rx="2"/><rect x="748" width="4" height="4" rx="2"/><rect x="782" width="4" height="4" rx="2"/><rect x="816" width="4" height="4" rx="2"/><rect x="850" width="4" height="4" rx="2"/><rect x="884" width="4" height="4" rx="2"/><rect x="918" width="4" height="4" rx="2"/><rect x="952" width="4" height="4" rx="2"/><rect x="986" width="4" height="4" rx="2"/><rect x="1020" width="4" height="4" rx="2"/><rect x="1054" width="4" height="4" rx="2"/><rect x="1088" width="4" height="4" rx="2"/><rect x="1122" width="4" height="4" rx="2"/><rect x="1156" width="4" height="4" rx="2"/><rect x="1190" width="4" height="4" rx="2"/><rect x="1224" width="4" height="4" rx="2"/><rect x="1258" width="4" height="4" rx="2"/><rect x="1292" width="4" height="4" rx="2"/><rect x="1326" width="4" height="4" rx="2"/><rect x="1360" width="4" height="4" rx="2"/></g><g transform="translate(0 34)"><rect width="4" height="4" rx="2"/><rect x="34" width="4" height="4" rx="2"/><rect x="68" width="4" height="4" rx="2"/><rect x="102" width="4" height="4" rx="2"/><rect x="136" width="4" height="4" rx="2"/><rect x="170" width="4" height="4" rx="2"/><rect x="204" width="4" height="4" rx="2"/><rect x="238" width="4" height="4" rx="2"/><rect x="272" width="4" height="4" rx="2"/><rect x="306" width="4" height="4" rx="2"/><rect x="340" width="4" height="4" rx="2"/><rect x="374" width="4" height="4" rx="2"/><rect x="408" width="4" height="4" rx="2"/><rect x="442" width="4" height="4" rx="2"/><rect x="476" width="4" height="4" rx="2"/><rect x="510" width="4" height="4" rx="2"/><rect x="544" width="4" height="4" rx="2"/><rect x="578" width="4" height="4" rx="2"/><rect x="612" width="4" height="4" rx="2"/><rect x="646" width="4" height="4" rx="2"/><rect x="680" width="4" height="4" rx="2"/><rect x="714" width="4" height="4" rx="2"/><rect x="748" width="4" height="4" rx="2"/><rect x="782" width="4" height="4" rx="2"/><rect x="816" width="4" height="4" rx="2"/><rect x="850" width="4" height="4" rx="2"/><rect x="884" width="4" height="4" rx="2"/><rect x="918" width="4" height="4" rx="2"/><rect x="952" width="4" height="4" rx="2"/><rect x="986" width="4" height="4" rx="2"/><rect x="1020" width="4" height="4" rx="2"/><rect x="1054" width="4" height="4" rx="2"/><rect x="1088" width="4" height="4" rx="2"/><rect x="1122" width="4" height="4" rx="2"/><rect x="1156" width="4" height="4" rx="2"/><rect x="1190" width="4" height="4" rx="2"/><rect x="1224" width="4" height="4" rx="2"/><rect x="1258" width="4" height="4" rx="2"/><rect x="1292" width="4" height="4" rx="2"/><rect x="1326" width="4" height="4" rx="2"/><rect x="1360" width="4" height="4" rx="2"/></g><g transform="translate(0 68)"><rect width="4" height="4" rx="2"/><rect x="34" width="4" height="4" rx="2"/><rect x="68" width="4" height="4" rx="2"/><rect x="102" width="4" height="4" rx="2"/><rect x="136" width="4" height="4" rx="2"/><rect x="170" width="4" height="4" rx="2"/><rect x="204" width="4" height="4" rx="2"/><rect x="238" width="4" height="4" rx="2"/><rect x="272" width="4" height="4" rx="2"/><rect x="306" width="4" height="4" rx="2"/><rect x="340" width="4" height="4" rx="2"/><rect x="374" width="4" height="4" rx="2"/><rect x="408" width="4" height="4" rx="2"/><rect x="442" width="4" height="4" rx="2"/><rect x="476" width="4" height="4" rx="2"/><rect x="510" width="4" height="4" rx="2"/><rect x="544" width="4" height="4" rx="2"/><rect x="578" width="4" height="4" rx="2"/><rect x="612" width="4" height="4" rx="2"/><rect x="646" width="4" height="4" rx="2"/><rect x="680" width="4" height="4" rx="2"/><rect x="714" width="4" height="4" rx="2"/><rect x="748" width="4" height="4" rx="2"/><rect x="782" width="4" height="4" rx="2"/><rect x="816" width="4" height="4" rx="2"/><rect x="850" width="4" height="4" rx="2"/><rect x="884" width="4" height="4" rx="2"/><rect x="918" width="4" height="4" rx="2"/><rect x="952" width="4" height="4" rx="2"/><rect x="986" width="4" height="4" rx="2"/><rect x="1020" width="4" height="4" rx="2"/><rect x="1054" width="4" height="4" rx="2"/><rect x="1088" width="4" height="4" rx="2"/><rect x="1122" width="4" height="4" rx="2"/><rect x="1156" width="4" height="4" rx="2"/><rect x="1190" width="4" height="4" rx="2"/><rect x="1224" width="4" height="4" rx="2"/><rect x="1258" width="4" height="4" rx="2"/><rect x="1292" width="4" height="4" rx="2"/><rect x="1326" width="4" height="4" rx="2"/><rect x="1360" width="4" height="4" rx="2"/></g><g transform="translate(0 102)"><rect width="4" height="4" rx="2"/><rect x="34" width="4" height="4" rx="2"/><rect x="68" width="4" height="4" rx="2"/><rect x="102" width="4" height="4" rx="2"/><rect x="136" width="4" height="4" rx="2"/><rect x="170" width="4" height="4" rx="2"/><rect x="204" width="4" height="4" rx="2"/><rect x="238" width="4" height="4" rx="2"/><rect x="272" width="4" height="4" rx="2"/><rect x="306" width="4" height="4" rx="2"/><rect x="340" width="4" height="4" rx="2"/><rect x="374" width="4" height="4" rx="2"/><rect x="408" width="4" height="4" rx="2"/><rect x="442" width="4" height="4" rx="2"/><rect x="476" width="4" height="4" rx="2"/><rect x="510" width="4" height="4" rx="2"/><rect x="544" width="4" height="4" rx="2"/><rect x="578" width="4" height="4" rx="2"/><rect x="612" width="4" height="4" rx="2"/><rect x="646" width="4" height="4" rx="2"/><rect x="680" width="4" height="4" rx="2"/><rect x="714" width="4" height="4" rx="2"/><rect x="748" width="4" height="4" rx="2"/><rect x="782" width="4" height="4" rx="2"/><rect x="816" width="4" height="4" rx="2"/><rect x="850" width="4" height="4" rx="2"/><rect x="884" width="4" height="4" rx="2"/><rect x="918" width="4" height="4" rx="2"/><rect x="952" width="4" height="4" rx="2"/><rect x="986" width="4" height="4" rx="2"/><rect x="1020" width="4" height="4" rx="2"/><rect x="1054" width="4" height="4" rx="2"/><rect x="1088" width="4" height="4" rx="2"/><rect x="1122" width="4" height="4" rx="2"/><rect x="1156" width="4" height="4" rx="2"/><rect x="1190" width="4" height="4" rx="2"/><rect x="1224" width="4" height="4" rx="2"/><rect x="1258" width="4" height="4" rx="2"/><rect x="1292" width="4" height="4" rx="2"/><rect x="1326" width="4" height="4" rx="2"/><rect x="1360" width="4" height="4" rx="2"/></g><g transform="translate(0 136)"><rect width="4" height="4" rx="2"/><rect x="34" width="4" height="4" rx="2"/><rect x="68" width="4" height="4" rx="2"/><rect x="102" width="4" height="4" rx="2"/><rect x="136" width="4" height="4" rx="2"/><rect x="170" width="4" height="4" rx="2"/><rect x="204" width="4" height="4" rx="2"/><rect x="238" width="4" height="4" rx="2"/><rect x="272" width="4" height="4" rx="2"/><rect x="306" width="4" height="4" rx="2"/><rect x="340" width="4" height="4" rx="2"/><rect x="374" width="4" height="4" rx="2"/><rect x="408" width="4" height="4" rx="2"/><rect x="442" width="4" height="4" rx="2"/><rect x="476" width="4" height="4" rx="2"/><rect x="510" width="4" height="4" rx="2"/><rect x="544" width="4" height="4" rx="2"/><rect x="578" width="4" height="4" rx="2"/><rect x="612" width="4" height="4" rx="2"/><rect x="646" width="4" height="4" rx="2"/><rect x="680" width="4" height="4" rx="2"/><rect x="714" width="4" height="4" rx="2"/><rect x="748" width="4" height="4" rx="2"/><rect x="782" width="4" height="4" rx="2"/><rect x="816" width="4" height="4" rx="2"/><rect x="850" width="4" height="4" rx="2"/><rect x="884" width="4" height="4" rx="2"/><rect x="918" width="4" height="4" rx="2"/><rect x="952" width="4" height="4" rx="2"/><rect x="986" width="4" height="4" rx="2"/><rect x="1020" width="4" height="4" rx="2"/><rect x="1054" width="4" height="4" rx="2"/><rect x="1088" width="4" height="4" rx="2"/><rect x="1122" width="4" height="4" rx="2"/><rect x="1156" width="4" height="4" rx="2"/><rect x="1190" width="4" height="4" rx="2"/><rect x="1224" width="4" height="4" rx="2"/><rect x="1258" width="4" height="4" rx="2"/><rect x="1292" width="4" height="4" rx="2"/><rect x="1326" width="4" height="4" rx="2"/><rect x="1360" width="4" height="4" rx="2"/></g><g transform="translate(0 170)"><rect width="4" height="4" rx="2"/><rect x="34" width="4" height="4" rx="2"/><rect x="68" width="4" height="4" rx="2"/><rect x="102" width="4" height="4" rx="2"/><rect x="136" width="4" height="4" rx="2"/><rect x="170" width="4" height="4" rx="2"/><rect x="204" width="4" height="4" rx="2"/><rect x="238" width="4" height="4" rx="2"/><rect x="272" width="4" height="4" rx="2"/><rect x="306" width="4" height="4" rx="2"/><rect x="340" width="4" height="4" rx="2"/><rect x="374" width="4" height="4" rx="2"/><rect x="408" width="4" height="4" rx="2"/><rect x="442" width="4" height="4" rx="2"/><rect x="476" width="4" height="4" rx="2"/><rect x="510" width="4" height="4" rx="2"/><rect x="544" width="4" height="4" rx="2"/><rect x="578" width="4" height="4" rx="2"/><rect x="612" width="4" height="4" rx="2"/><rect x="646" width="4" height="4" rx="2"/><rect x="680" width="4" height="4" rx="2"/><rect x="714" width="4" height="4" rx="2"/><rect x="748" width="4" height="4" rx="2"/><rect x="782" width="4" height="4" rx="2"/><rect x="816" width="4" height="4" rx="2"/><rect x="850" width="4" height="4" rx="2"/><rect x="884" width="4" height="4" rx="2"/><rect x="918" width="4" height="4" rx="2"/><rect x="952" width="4" height="4" rx="2"/><rect x="986" width="4" height="4" rx="2"/><rect x="1020" width="4" height="4" rx="2"/><rect x="1054" width="4" height="4" rx="2"/><rect x="1088" width="4" height="4" rx="2"/><rect x="1122" width="4" height="4" rx="2"/><rect x="1156" width="4" height="4" rx="2"/><rect x="1190" width="4" height="4" rx="2"/><rect x="1224" width="4" height="4" rx="2"/><rect x="1258" width="4" height="4" rx="2"/><rect x="1292" width="4" height="4" rx="2"/><rect x="1326" width="4" height="4" rx="2"/><rect x="1360" width="4" height="4" rx="2"/></g><g transform="translate(0 204)"><rect width="4" height="4" rx="2"/><rect x="34" width="4" height="4" rx="2"/><rect x="68" width="4" height="4" rx="2"/><rect x="102" width="4" height="4" rx="2"/><rect x="136" width="4" height="4" rx="2"/><rect x="170" width="4" height="4" rx="2"/><rect x="204" width="4" height="4" rx="2"/><rect x="238" width="4" height="4" rx="2"/><rect x="272" width="4" height="4" rx="2"/><rect x="306" width="4" height="4" rx="2"/><rect x="340" width="4" height="4" rx="2"/><rect x="374" width="4" height="4" rx="2"/><rect x="408" width="4" height="4" rx="2"/><rect x="442" width="4" height="4" rx="2"/><rect x="476" width="4" height="4" rx="2"/><rect x="510" width="4" height="4" rx="2"/><rect x="544" width="4" height="4" rx="2"/><rect x="578" width="4" height="4" rx="2"/><rect x="612" width="4" height="4" rx="2"/><rect x="646" width="4" height="4" rx="2"/><rect x="680" width="4" height="4" rx="2"/><rect x="714" width="4" height="4" rx="2"/><rect x="748" width="4" height="4" rx="2"/><rect x="782" width="4" height="4" rx="2"/><rect x="816" width="4" height="4" rx="2"/><rect x="850" width="4" height="4" rx="2"/><rect x="884" width="4" height="4" rx="2"/><rect x="918" width="4" height="4" rx="2"/><rect x="952" width="4" height="4" rx="2"/><rect x="986" width="4" height="4" rx="2"/><rect x="1020" width="4" height="4" rx="2"/><rect x="1054" width="4" height="4" rx="2"/><rect x="1088" width="4" height="4" rx="2"/><rect x="1122" width="4" height="4" rx="2"/><rect x="1156" width="4" height="4" rx="2"/><rect x="1190" width="4" height="4" rx="2"/><rect x="1224" width="4" height="4" rx="2"/><rect x="1258" width="4" height="4" rx="2"/><rect x="1292" width="4" height="4" rx="2"/><rect x="1326" width="4" height="4" rx="2"/><rect x="1360" width="4" height="4" rx="2"/></g><g transform="translate(0 238)"><rect width="4" height="4" rx="2"/><rect x="34" width="4" height="4" rx="2"/><rect x="68" width="4" height="4" rx="2"/><rect x="102" width="4" height="4" rx="2"/><rect x="136" width="4" height="4" rx="2"/><rect x="170" width="4" height="4" rx="2"/><rect x="204" width="4" height="4" rx="2"/><rect x="238" width="4" height="4" rx="2"/><rect x="272" width="4" height="4" rx="2"/><rect x="306" width="4" height="4" rx="2"/><rect x="340" width="4" height="4" rx="2"/><rect x="374" width="4" height="4" rx="2"/><rect x="408" width="4" height="4" rx="2"/><rect x="442" width="4" height="4" rx="2"/><rect x="476" width="4" height="4" rx="2"/><rect x="510" width="4" height="4" rx="2"/><rect x="544" width="4" height="4" rx="2"/><rect x="578" width="4" height="4" rx="2"/><rect x="612" width="4" height="4" rx="2"/><rect x="646" width="4" height="4" rx="2"/><rect x="680" width="4" height="4" rx="2"/><rect x="714" width="4" height="4" rx="2"/><rect x="748" width="4" height="4" rx="2"/><rect x="782" width="4" height="4" rx="2"/><rect x="816" width="4" height="4" rx="2"/><rect x="850" width="4" height="4" rx="2"/><rect x="884" width="4" height="4" rx="2"/><rect x="918" width="4" height="4" rx="2"/><rect x="952" width="4" height="4" rx="2"/><rect x="986" width="4" height="4" rx="2"/><rect x="1020" width="4" height="4" rx="2"/><rect x="1054" width="4" height="4" rx="2"/><rect x="1088" width="4" height="4" rx="2"/><rect x="1122" width="4" height="4" rx="2"/><rect x="1156" width="4" height="4" rx="2"/><rect x="1190" width="4" height="4" rx="2"/><rect x="1224" width="4" height="4" rx="2"/><rect x="1258" width="4" height="4" rx="2"/><rect x="1292" width="4" height="4" rx="2"/><rect x="1326" width="4" height="4" rx="2"/><rect x="1360" width="4" height="4" rx="2"/></g><g transform="translate(0 272)"><rect width="4" height="4" rx="2"/><rect x="34" width="4" height="4" rx="2"/><rect x="68" width="4" height="4" rx="2"/><rect x="102" width="4" height="4" rx="2"/><rect x="136" width="4" height="4" rx="2"/><rect x="170" width="4" height="4" rx="2"/><rect x="204" width="4" height="4" rx="2"/><rect x="238" width="4" height="4" rx="2"/><rect x="272" width="4" height="4" rx="2"/><rect x="306" width="4" height="4" rx="2"/><rect x="340" width="4" height="4" rx="2"/><rect x="374" width="4" height="4" rx="2"/><rect x="408" width="4" height="4" rx="2"/><rect x="442" width="4" height="4" rx="2"/><rect x="476" width="4" height="4" rx="2"/><rect x="510" width="4" height="4" rx="2"/><rect x="544" width="4" height="4" rx="2"/><rect x="578" width="4" height="4" rx="2"/><rect x="612" width="4" height="4" rx="2"/><rect x="646" width="4" height="4" rx="2"/><rect x="680" width="4" height="4" rx="2"/><rect x="714" width="4" height="4" rx="2"/><rect x="748" width="4" height="4" rx="2"/><rect x="782" width="4" height="4" rx="2"/><rect x="816" width="4" height="4" rx="2"/><rect x="850" width="4" height="4" rx="2"/><rect x="884" width="4" height="4" rx="2"/><rect x="918" width="4" height="4" rx="2"/><rect x="952" width="4" height="4" rx="2"/><rect x="986" width="4" height="4" rx="2"/><rect x="1020" width="4" height="4" rx="2"/><rect x="1054" width="4" height="4" rx="2"/><rect x="1088" width="4" height="4" rx="2"/><rect x="1122" width="4" height="4" rx="2"/><rect x="1156" width="4" height="4" rx="2"/><rect x="1190" width="4" height="4" rx="2"/><rect x="1224" width="4" height="4" rx="2"/><rect x="1258" width="4" height="4" rx="2"/><rect x="1292" width="4" height="4" rx="2"/><rect x="1326" width="4" height="4" rx="2"/><rect x="1360" width="4" height="4" rx="2"/></g><g transform="translate(0 306)"><rect width="4" height="4" rx="2"/><rect x="34" width="4" height="4" rx="2"/><rect x="68" width="4" height="4" rx="2"/><rect x="102" width="4" height="4" rx="2"/><rect x="136" width="4" height="4" rx="2"/><rect x="170" width="4" height="4" rx="2"/><rect x="204" width="4" height="4" rx="2"/><rect x="238" width="4" height="4" rx="2"/><rect x="272" width="4" height="4" rx="2"/><rect x="306" width="4" height="4" rx="2"/><rect x="340" width="4" height="4" rx="2"/><rect x="374" width="4" height="4" rx="2"/><rect x="408" width="4" height="4" rx="2"/><rect x="442" width="4" height="4" rx="2"/><rect x="476" width="4" height="4" rx="2"/><rect x="510" width="4" height="4" rx="2"/><rect x="544" width="4" height="4" rx="2"/><rect x="578" width="4" height="4" rx="2"/><rect x="612" width="4" height="4" rx="2"/><rect x="646" width="4" height="4" rx="2"/><rect x="680" width="4" height="4" rx="2"/><rect x="714" width="4" height="4" rx="2"/><rect x="748" width="4" height="4" rx="2"/><rect x="782" width="4" height="4" rx="2"/><rect x="816" width="4" height="4" rx="2"/><rect x="850" width="4" height="4" rx="2"/><rect x="884" width="4" height="4" rx="2"/><rect x="918" width="4" height="4" rx="2"/><rect x="952" width="4" height="4" rx="2"/><rect x="986" width="4" height="4" rx="2"/><rect x="1020" width="4" height="4" rx="2"/><rect x="1054" width="4" height="4" rx="2"/><rect x="1088" width="4" height="4" rx="2"/><rect x="1122" width="4" height="4" rx="2"/><rect x="1156" width="4" height="4" rx="2"/><rect x="1190" width="4" height="4" rx="2"/><rect x="1224" width="4" height="4" rx="2"/><rect x="1258" width="4" height="4" rx="2"/><rect x="1292" width="4" height="4" rx="2"/><rect x="1326" width="4" height="4" rx="2"/><rect x="1360" width="4" height="4" rx="2"/></g><g transform="translate(0 340)"><rect width="4" height="4" rx="2"/><rect x="34" width="4" height="4" rx="2"/><rect x="68" width="4" height="4" rx="2"/><rect x="102" width="4" height="4" rx="2"/><rect x="136" width="4" height="4" rx="2"/><rect x="170" width="4" height="4" rx="2"/><rect x="204" width="4" height="4" rx="2"/><rect x="238" width="4" height="4" rx="2"/><rect x="272" width="4" height="4" rx="2"/><rect x="306" width="4" height="4" rx="2"/><rect x="340" width="4" height="4" rx="2"/><rect x="374" width="4" height="4" rx="2"/><rect x="408" width="4" height="4" rx="2"/><rect x="442" width="4" height="4" rx="2"/><rect x="476" width="4" height="4" rx="2"/><rect x="510" width="4" height="4" rx="2"/><rect x="544" width="4" height="4" rx="2"/><rect x="578" width="4" height="4" rx="2"/><rect x="612" width="4" height="4" rx="2"/><rect x="646" width="4" height="4" rx="2"/><rect x="680" width="4" height="4" rx="2"/><rect x="714" width="4" height="4" rx="2"/><rect x="748" width="4" height="4" rx="2"/><rect x="782" width="4" height="4" rx="2"/><rect x="816" width="4" height="4" rx="2"/><rect x="850" width="4" height="4" rx="2"/><rect x="884" width="4" height="4" rx="2"/><rect x="918" width="4" height="4" rx="2"/><rect x="952" width="4" height="4" rx="2"/><rect x="986" width="4" height="4" rx="2"/><rect x="1020" width="4" height="4" rx="2"/><rect x="1054" width="4" height="4" rx="2"/><rect x="1088" width="4" height="4" rx="2"/><rect x="1122" width="4" height="4" rx="2"/><rect x="1156" width="4" height="4" rx="2"/><rect x="1190" width="4" height="4" rx="2"/><rect x="1224" width="4" height="4" rx="2"/><rect x="1258" width="4" height="4" rx="2"/><rect x="1292" width="4" height="4" rx="2"/><rect x="1326" width="4" height="4" rx="2"/><rect x="1360" width="4" height="4" rx="2"/></g><g transform="translate(0 374)"><rect width="4" height="4" rx="2"/><rect x="34" width="4" height="4" rx="2"/><rect x="68" width="4" height="4" rx="2"/><rect x="102" width="4" height="4" rx="2"/><rect x="136" width="4" height="4" rx="2"/><rect x="170" width="4" height="4" rx="2"/><rect x="204" width="4" height="4" rx="2"/><rect x="238" width="4" height="4" rx="2"/><rect x="272" width="4" height="4" rx="2"/><rect x="306" width="4" height="4" rx="2"/><rect x="340" width="4" height="4" rx="2"/><rect x="374" width="4" height="4" rx="2"/><rect x="408" width="4" height="4" rx="2"/><rect x="442" width="4" height="4" rx="2"/><rect x="476" width="4" height="4" rx="2"/><rect x="510" width="4" height="4" rx="2"/><rect x="544" width="4" height="4" rx="2"/><rect x="578" width="4" height="4" rx="2"/><rect x="612" width="4" height="4" rx="2"/><rect x="646" width="4" height="4" rx="2"/><rect x="680" width="4" height="4" rx="2"/><rect x="714" width="4" height="4" rx="2"/><rect x="748" width="4" height="4" rx="2"/><rect x="782" width="4" height="4" rx="2"/><rect x="816" width="4" height="4" rx="2"/><rect x="850" width="4" height="4" rx="2"/><rect x="884" width="4" height="4" rx="2"/><rect x="918" width="4" height="4" rx="2"/><rect x="952" width="4" height="4" rx="2"/><rect x="986" width="4" height="4" rx="2"/><rect x="1020" width="4" height="4" rx="2"/><rect x="1054" width="4" height="4" rx="2"/><rect x="1088" width="4" height="4" rx="2"/><rect x="1122" width="4" height="4" rx="2"/><rect x="1156" width="4" height="4" rx="2"/><rect x="1190" width="4" height="4" rx="2"/><rect x="1224" width="4" height="4" rx="2"/><rect x="1258" width="4" height="4" rx="2"/><rect x="1292" width="4" height="4" rx="2"/><rect x="1326" width="4" height="4" rx="2"/><rect x="1360" width="4" height="4" rx="2"/></g><g transform="translate(0 408)"><rect width="4" height="4" rx="2"/><rect x="34" width="4" height="4" rx="2"/><rect x="68" width="4" height="4" rx="2"/><rect x="102" width="4" height="4" rx="2"/><rect x="136" width="4" height="4" rx="2"/><rect x="170" width="4" height="4" rx="2"/><rect x="204" width="4" height="4" rx="2"/><rect x="238" width="4" height="4" rx="2"/><rect x="272" width="4" height="4" rx="2"/><rect x="306" width="4" height="4" rx="2"/><rect x="340" width="4" height="4" rx="2"/><rect x="374" width="4" height="4" rx="2"/><rect x="408" width="4" height="4" rx="2"/><rect x="442" width="4" height="4" rx="2"/><rect x="476" width="4" height="4" rx="2"/><rect x="510" width="4" height="4" rx="2"/><rect x="544" width="4" height="4" rx="2"/><rect x="578" width="4" height="4" rx="2"/><rect x="612" width="4" height="4" rx="2"/><rect x="646" width="4" height="4" rx="2"/><rect x="680" width="4" height="4" rx="2"/><rect x="714" width="4" height="4" rx="2"/><rect x="748" width="4" height="4" rx="2"/><rect x="782" width="4" height="4" rx="2"/><rect x="816" width="4" height="4" rx="2"/><rect x="850" width="4" height="4" rx="2"/><rect x="884" width="4" height="4" rx="2"/><rect x="918" width="4" height="4" rx="2"/><rect x="952" width="4" height="4" rx="2"/><rect x="986" width="4" height="4" rx="2"/><rect x="1020" width="4" height="4" rx="2"/><rect x="1054" width="4" height="4" rx="2"/><rect x="1088" width="4" height="4" rx="2"/><rect x="1122" width="4" height="4" rx="2"/><rect x="1156" width="4" height="4" rx="2"/><rect x="1190" width="4" height="4" rx="2"/><rect x="1224" width="4" height="4" rx="2"/><rect x="1258" width="4" height="4" rx="2"/><rect x="1292" width="4" height="4" rx="2"/><rect x="1326" width="4" height="4" rx="2"/><rect x="1360" width="4" height="4" rx="2"/></g><g transform="translate(0 442)"><rect width="4" height="4" rx="2"/><rect x="34" width="4" height="4" rx="2"/><rect x="68" width="4" height="4" rx="2"/><rect x="102" width="4" height="4" rx="2"/><rect x="136" width="4" height="4" rx="2"/><rect x="170" width="4" height="4" rx="2"/><rect x="204" width="4" height="4" rx="2"/><rect x="238" width="4" height="4" rx="2"/><rect x="272" width="4" height="4" rx="2"/><rect x="306" width="4" height="4" rx="2"/><rect x="340" width="4" height="4" rx="2"/><rect x="374" width="4" height="4" rx="2"/><rect x="408" width="4" height="4" rx="2"/><rect x="442" width="4" height="4" rx="2"/><rect x="476" width="4" height="4" rx="2"/><rect x="510" width="4" height="4" rx="2"/><rect x="544" width="4" height="4" rx="2"/><rect x="578" width="4" height="4" rx="2"/><rect x="612" width="4" height="4" rx="2"/><rect x="646" width="4" height="4" rx="2"/><rect x="680" width="4" height="4" rx="2"/><rect x="714" width="4" height="4" rx="2"/><rect x="748" width="4" height="4" rx="2"/><rect x="782" width="4" height="4" rx="2"/><rect x="816" width="4" height="4" rx="2"/><rect x="850" width="4" height="4" rx="2"/><rect x="884" width="4" height="4" rx="2"/><rect x="918" width="4" height="4" rx="2"/><rect x="952" width="4" height="4" rx="2"/><rect x="986" width="4" height="4" rx="2"/><rect x="1020" width="4" height="4" rx="2"/><rect x="1054" width="4" height="4" rx="2"/><rect x="1088" width="4" height="4" rx="2"/><rect x="1122" width="4" height="4" rx="2"/><rect x="1156" width="4" height="4" rx="2"/><rect x="1190" width="4" height="4" rx="2"/><rect x="1224" width="4" height="4" rx="2"/><rect x="1258" width="4" height="4" rx="2"/><rect x="1292" width="4" height="4" rx="2"/><rect x="1326" width="4" height="4" rx="2"/><rect x="1360" width="4" height="4" rx="2"/></g><g transform="translate(0 476)"><rect width="4" height="4" rx="2"/><rect x="34" width="4" height="4" rx="2"/><rect x="68" width="4" height="4" rx="2"/><rect x="102" width="4" height="4" rx="2"/><rect x="136" width="4" height="4" rx="2"/><rect x="170" width="4" height="4" rx="2"/><rect x="204" width="4" height="4" rx="2"/><rect x="238" width="4" height="4" rx="2"/><rect x="272" width="4" height="4" rx="2"/><rect x="306" width="4" height="4" rx="2"/><rect x="340" width="4" height="4" rx="2"/><rect x="374" width="4" height="4" rx="2"/><rect x="408" width="4" height="4" rx="2"/><rect x="442" width="4" height="4" rx="2"/><rect x="476" width="4" height="4" rx="2"/><rect x="510" width="4" height="4" rx="2"/><rect x="544" width="4" height="4" rx="2"/><rect x="578" width="4" height="4" rx="2"/><rect x="612" width="4" height="4" rx="2"/><rect x="646" width="4" height="4" rx="2"/><rect x="680" width="4" height="4" rx="2"/><rect x="714" width="4" height="4" rx="2"/><rect x="748" width="4" height="4" rx="2"/><rect x="782" width="4" height="4" rx="2"/><rect x="816" width="4" height="4" rx="2"/><rect x="850" width="4" height="4" rx="2"/><rect x="884" width="4" height="4" rx="2"/><rect x="918" width="4" height="4" rx="2"/><rect x="952" width="4" height="4" rx="2"/><rect x="986" width="4" height="4" rx="2"/><rect x="1020" width="4" height="4" rx="2"/><rect x="1054" width="4" height="4" rx="2"/><rect x="1088" width="4" height="4" rx="2"/><rect x="1122" width="4" height="4" rx="2"/><rect x="1156" width="4" height="4" rx="2"/><rect x="1190" width="4" height="4" rx="2"/><rect x="1224" width="4" height="4" rx="2"/><rect x="1258" width="4" height="4" rx="2"/><rect x="1292" width="4" height="4" rx="2"/><rect x="1326" width="4" height="4" rx="2"/><rect x="1360" width="4" height="4" rx="2"/></g><g transform="translate(0 510)"><rect width="4" height="4" rx="2"/><rect x="34" width="4" height="4" rx="2"/><rect x="68" width="4" height="4" rx="2"/><rect x="102" width="4" height="4" rx="2"/><rect x="136" width="4" height="4" rx="2"/><rect x="170" width="4" height="4" rx="2"/><rect x="204" width="4" height="4" rx="2"/><rect x="238" width="4" height="4" rx="2"/><rect x="272" width="4" height="4" rx="2"/><rect x="306" width="4" height="4" rx="2"/><rect x="340" width="4" height="4" rx="2"/><rect x="374" width="4" height="4" rx="2"/><rect x="408" width="4" height="4" rx="2"/><rect x="442" width="4" height="4" rx="2"/><rect x="476" width="4" height="4" rx="2"/><rect x="510" width="4" height="4" rx="2"/><rect x="544" width="4" height="4" rx="2"/><rect x="578" width="4" height="4" rx="2"/><rect x="612" width="4" height="4" rx="2"/><rect x="646" width="4" height="4" rx="2"/><rect x="680" width="4" height="4" rx="2"/><rect x="714" width="4" height="4" rx="2"/><rect x="748" width="4" height="4" rx="2"/><rect x="782" width="4" height="4" rx="2"/><rect x="816" width="4" height="4" rx="2"/><rect x="850" width="4" height="4" rx="2"/><rect x="884" width="4" height="4" rx="2"/><rect x="918" width="4" height="4" rx="2"/><rect x="952" width="4" height="4" rx="2"/><rect x="986" width="4" height="4" rx="2"/><rect x="1020" width="4" height="4" rx="2"/><rect x="1054" width="4" height="4" rx="2"/><rect x="1088" width="4" height="4" rx="2"/><rect x="1122" width="4" height="4" rx="2"/><rect x="1156" width="4" height="4" rx="2"/><rect x="1190" width="4" height="4" rx="2"/><rect x="1224" width="4" height="4" rx="2"/><rect x="1258" width="4" height="4" rx="2"/><rect x="1292" width="4" height="4" rx="2"/><rect x="1326" width="4" height="4" rx="2"/><rect x="1360" width="4" height="4" rx="2"/></g><g transform="translate(0 544)"><rect width="4" height="4" rx="2"/><rect x="34" width="4" height="4" rx="2"/><rect x="68" width="4" height="4" rx="2"/><rect x="102" width="4" height="4" rx="2"/><rect x="136" width="4" height="4" rx="2"/><rect x="170" width="4" height="4" rx="2"/><rect x="204" width="4" height="4" rx="2"/><rect x="238" width="4" height="4" rx="2"/><rect x="272" width="4" height="4" rx="2"/><rect x="306" width="4" height="4" rx="2"/><rect x="340" width="4" height="4" rx="2"/><rect x="374" width="4" height="4" rx="2"/><rect x="408" width="4" height="4" rx="2"/><rect x="442" width="4" height="4" rx="2"/><rect x="476" width="4" height="4" rx="2"/><rect x="510" width="4" height="4" rx="2"/><rect x="544" width="4" height="4" rx="2"/><rect x="578" width="4" height="4" rx="2"/><rect x="612" width="4" height="4" rx="2"/><rect x="646" width="4" height="4" rx="2"/><rect x="680" width="4" height="4" rx="2"/><rect x="714" width="4" height="4" rx="2"/><rect x="748" width="4" height="4" rx="2"/><rect x="782" width="4" height="4" rx="2"/><rect x="816" width="4" height="4" rx="2"/><rect x="850" width="4" height="4" rx="2"/><rect x="884" width="4" height="4" rx="2"/><rect x="918" width="4" height="4" rx="2"/><rect x="952" width="4" height="4" rx="2"/><rect x="986" width="4" height="4" rx="2"/><rect x="1020" width="4" height="4" rx="2"/><rect x="1054" width="4" height="4" rx="2"/><rect x="1088" width="4" height="4" rx="2"/><rect x="1122" width="4" height="4" rx="2"/><rect x="1156" width="4" height="4" rx="2"/><rect x="1190" width="4" height="4" rx="2"/><rect x="1224" width="4" height="4" rx="2"/><rect x="1258" width="4" height="4" rx="2"/><rect x="1292" width="4" height="4" rx="2"/><rect x="1326" width="4" height="4" rx="2"/><rect x="1360" width="4" height="4" rx="2"/></g></g></svg>